# xmcd
# Copyright (C) 1995-1998 Ti Kan
#
# Track frame offsets:
#       150
#       18682
#       39725
#       56787
#       72855
#       86755
#       104450
#       127850
#       151927
#       175612
#       190607
#
# Disc length: 3021 seconds
#
# Revision: 0
# Processed by: cddbd v1.5.2PL0 Copyright (c) Steve Scherf et al.
# Submitted via: CD-Import v1.0
#
DISCID=8c0bcb0b
DTITLE=Pride - Lipstick Traces
DYEAR=1996
DGENRE=
TTITLE0=100 Ways To Kill A Love
TTITLE1=I'm
TTITLE2=She's A Woman (Farfisa Version)
TTITLE3=And The Morning Was Free
TTITLE4=At X-Mas I Feel Blue
TTITLE5=The Day Daddy Died
TTITLE6=Ride On
TTITLE7=A Good Day To Die
TTITLE8=Ancient Story
TTITLE9=She's A Woman (Electric Version)
TTITLE10=Way Down
EXTD=
EXTT0=
EXTT1=
EXTT2=
EXTT3=
EXTT4=
EXTT5=
EXTT6=
EXTT7=
EXTT8=
EXTT9=
EXTT10=
PLAYORDER=
